<svg xmlns="http://www.w3.org/2000/svg" width="1200" height="320" viewBox="0 0 1200 320" fill="none">
  <g transform="translate(40 58)">
    <path
      d="M32 78c0-24.3 19.7-44 44-44h1.5c6.9-19.1 25.3-32.8 47-32.8 27.5 0 49.9 22.3 49.9 49.9V78h1.8c16.6 0 30 13.4 30 30s-13.4 30-30 30H76C51.7 138 32 118.3 32 94V78Z"
      fill="none"
      stroke="#FF9900"
      stroke-width="10"
      stroke-linecap="round"
      stroke-linejoin="round"
    />
    <circle cx="92" cy="106" r="10" fill="#FF9900" />
    <circle cx="140" cy="68" r="10" fill="#FF9900" />
    <circle cx="175" cy="116" r="10" fill="#FF9900" />
    <line x1="92" y1="106" x2="140" y2="68" stroke="#FF9900" stroke-width="5" stroke-linecap="round" />
    <line x1="140" y1="68" x2="175" y2="116" stroke="#FF9900" stroke-width="5" stroke-linecap="round" />
  </g>
  <text x="280" y="144" fill="#0F1118" font-family="IBM Plex Sans, Segoe UI, sans-serif" font-size="82" font-weight="800" letter-spacing="-1.4">GUAT<tspan fill="#FF9900">CLOUD</tspan></text>
  <text x="284" y="198" fill="#55657A" font-family="IBM Plex Sans, Segoe UI, sans-serif" font-size="22" font-weight="600" letter-spacing="7">CLOUD CONSULTING &amp; DEVOPS</text>
</svg>
