<svg xmlns="http://www.w3.org/2000/svg" width="640" height="640" viewBox="0 0 64 64" fill="none">
  <defs>
    <linearGradient id="bg" x1="9" y1="7" x2="56" y2="57" gradientUnits="userSpaceOnUse">
      <stop stop-color="#111827"/>
      <stop offset="1" stop-color="#0C1322"/>
    </linearGradient>
    <linearGradient id="node" x1="17" y1="18" x2="47" y2="46" gradientUnits="userSpaceOnUse">
      <stop stop-color="#1E40AF"/>
      <stop offset="1" stop-color="#22C1D6"/>
    </linearGradient>
  </defs>
  <rect width="64" height="64" rx="16" fill="url(#bg)"/>
  <path
    d="M19.5 45c-5 0-9-3.7-9-8.3 0-4.1 3.1-7.5 7.2-8.2 1.2-6.1 6.6-10.7 13-10.7 5.1 0 9.7 2.9 12 7.2.8-.2 1.5-.3 2.3-.3 4.9 0 8.9 3.7 8.9 8.3 0 .8-.1 1.6-.3 2.3 2.4 1.2 3.9 3.5 3.9 6.1 0 4-3.3 7.3-7.4 7.3H19.5Z"
    stroke="#E7F2FB"
    stroke-width="2.4"
    stroke-linejoin="round"
    opacity="0.95"
  />
  <path d="M20.5 39.5h23.5" stroke="url(#node)" stroke-width="3" stroke-linecap="round"/>
  <path d="M26 25.5h12" stroke="url(#node)" stroke-width="3" stroke-linecap="round"/>
  <path d="M26 25.5v14" stroke="url(#node)" stroke-width="3" stroke-linecap="round"/>
  <path d="M38 25.5v14" stroke="url(#node)" stroke-width="3" stroke-linecap="round"/>
  <circle cx="20.5" cy="39.5" r="3.2" fill="#0EA5E9"/>
  <circle cx="44" cy="39.5" r="3.2" fill="#1E40AF"/>
  <circle cx="26" cy="25.5" r="3.2" fill="#22C1D6"/>
  <circle cx="38" cy="25.5" r="3.2" fill="#7DD3FC"/>
  <path
    d="M23 47.5c2.7 1.8 5.7 2.7 9 2.7 3.2 0 6.2-.9 9-2.7"
    stroke="#60D3B7"
    stroke-width="1.9"
    stroke-linecap="round"
    opacity="0.85"
  />
</svg>
