<svg xmlns="http://www.w3.org/2000/svg" width="640" height="640" viewBox="0 0 64 64" fill="none">
  <defs>
    <linearGradient id="bg" x1="8" y1="6" x2="56" y2="58" gradientUnits="userSpaceOnUse">
      <stop stop-color="#111827"/>
      <stop offset="1" stop-color="#0C1322"/>
    </linearGradient>
    <linearGradient id="cloud" x1="14" y1="20" x2="49" y2="46" gradientUnits="userSpaceOnUse">
      <stop stop-color="#F8FBFF"/>
      <stop offset="1" stop-color="#D9EAF5"/>
    </linearGradient>
    <linearGradient id="loop" x1="17" y1="25" x2="47" y2="40" gradientUnits="userSpaceOnUse">
      <stop stop-color="#1E40AF"/>
      <stop offset="1" stop-color="#0EA5E9"/>
    </linearGradient>
    <linearGradient id="ridge" x1="22" y1="42" x2="42" y2="49" gradientUnits="userSpaceOnUse">
      <stop stop-color="#1E40AF"/>
      <stop offset="1" stop-color="#22C1D6"/>
    </linearGradient>
  </defs>
  <rect width="64" height="64" rx="16" fill="url(#bg)"/>
  <path
    d="M18.2 46.4c-4.9 0-8.9-3.8-8.9-8.5 0-4 2.9-7.3 6.9-8.2 1.5-5.8 6.8-10 13-10 4.7 0 8.9 2.3 11.5 5.8 1-.4 2-.6 3.1-.6 5.5 0 10 4.3 10 9.6 0 .4 0 .8-.1 1.2 2.1 1.2 3.5 3.4 3.5 6 0 3.8-3.1 6.9-7 6.9H18.2Z"
    fill="url(#cloud)"
    fill-opacity="0.96"
  />
  <path
    d="M21.5 38.6c-3.6 0-6.6-2.7-6.6-6.1s2.9-6.1 6.6-6.1c1.9 0 3.6.7 4.9 2.1l5.6 5.9 5.6-5.9c1.3-1.4 3-2.1 4.9-2.1 3.6 0 6.6 2.7 6.6 6.1s-2.9 6.1-6.6 6.1c-1.9 0-3.6-.7-4.9-2.1L32 30.6l-5.6 5.9c-1.3 1.4-3 2.1-4.9 2.1Z"
    stroke="url(#loop)"
    stroke-width="4.75"
    stroke-linecap="round"
    stroke-linejoin="round"
  />
  <path
    d="M22 44.5c2.8 2.5 6.2 3.8 10 3.8s7.2-1.3 10-3.8"
    stroke="url(#ridge)"
    stroke-width="2.2"
    stroke-linecap="round"
  />
  <path
    d="M30.6 44.1 32 41.6l1.4 2.5"
    stroke="#22C1D6"
    stroke-width="1.8"
    stroke-linecap="round"
    stroke-linejoin="round"
    opacity="0.9"
  />
  <circle cx="51.5" cy="18.5" r="2" fill="#D7F4FF" fill-opacity="0.85"/>
</svg>
