<svg xmlns="http://www.w3.org/2000/svg" width="640" height="640" viewBox="0 0 64 64" fill="none">
  <defs>
    <linearGradient id="bg" x1="8" y1="8" x2="56" y2="56" gradientUnits="userSpaceOnUse">
      <stop stop-color="#101827"/>
      <stop offset="1" stop-color="#0C1322"/>
    </linearGradient>
    <linearGradient id="cloud" x1="14" y1="20" x2="50" y2="46" gradientUnits="userSpaceOnUse">
      <stop stop-color="#F7FBFF"/>
      <stop offset="1" stop-color="#DCEAF3"/>
    </linearGradient>
    <linearGradient id="loop" x1="16" y1="28" x2="48" y2="38" gradientUnits="userSpaceOnUse">
      <stop stop-color="#4ADE80"/>
      <stop offset="0.52" stop-color="#1E40AF"/>
      <stop offset="1" stop-color="#0EA5E9"/>
    </linearGradient>
  </defs>
  <rect width="64" height="64" rx="16" fill="url(#bg)"/>
  <path
    d="M18.2 46.4c-4.9 0-8.9-3.8-8.9-8.5 0-4 2.9-7.3 6.9-8.2 1.5-5.8 6.8-10 13-10 4.7 0 8.9 2.3 11.5 5.8 1-.4 2-.6 3.1-.6 5.5 0 10 4.3 10 9.6 0 .4 0 .8-.1 1.2 2.1 1.2 3.5 3.4 3.5 6 0 3.8-3.1 6.9-7 6.9H18.2Z"
    fill="url(#cloud)"
    fill-opacity="0.96"
  />
  <path
    d="M21.6 38.8c-3.7 0-6.7-2.8-6.7-6.3 0-3.4 3-6.2 6.7-6.2 2 0 3.9.8 5.2 2.3L32 34.1l5.2-5.5c1.3-1.5 3.2-2.3 5.2-2.3 3.7 0 6.7 2.8 6.7 6.2 0 3.5-3 6.3-6.7 6.3-2 0-3.9-.8-5.2-2.3L32 31l-5.2 5.5c-1.3 1.5-3.2 2.3-5.2 2.3Z"
    stroke="url(#loop)"
    stroke-width="4.4"
    stroke-linecap="round"
    stroke-linejoin="round"
  />
  <path
    d="M22.4 22.2c4.6-2.6 9.4-2.7 14.2-.3 2.5 1.3 4.8 3 6.7 5 1-1.9 2.4-3.6 4.3-5.1"
    stroke="#60D3B7"
    stroke-width="1.9"
    stroke-linecap="round"
    opacity="0.9"
  />
  <path
    d="M43.6 19.3c3.2.7 5.6 2.2 7.2 4.5"
    stroke="#7DD3FC"
    stroke-width="1.8"
    stroke-linecap="round"
    opacity="0.9"
  />
</svg>
